<?xml version="1.0" standalone="no"?><!DOCTYPE svg PUBLIC "-//W3C//DTD SVG 1.1//EN" "http://www.w3.org/Graphics/SVG/1.1/DTD/svg11.dtd"><svg class="icon" width="64px" height="64.00px" viewBox="0 0 1024 1024" version="1.1" xmlns="http://www.w3.org/2000/svg"><path d="M516.096 234.7008h235.6736l-89.8048-88.3712c-18.0736-17.7664-47.2576-17.152-64.5632 1.3312l-81.3056 87.04z" fill="#FF6950" /><path d="M618.0864 160.0512l75.8784 74.6496h57.8048l-89.8048-88.3712c-18.0736-17.7664-47.2576-17.152-64.5632 1.3312l-0.6144 0.6656a45.1584 45.1584 0 0 1 21.2992 11.7248z" fill="#F4403B" /><path d="M751.7184 250.0608H516.096c-6.144 0-11.6736-3.6352-14.08-9.2672s-1.3312-12.1344 2.8672-16.5888l81.3056-86.9888c11.2128-12.032 26.4704-18.8416 42.9056-19.1488 16.5376-0.256 31.9488 5.8368 43.6736 17.3568l89.8048 88.3712c4.4544 4.352 5.7856 11.008 3.4304 16.7936a15.5648 15.5648 0 0 1-14.2848 9.472z m-200.2944-30.72h162.7648l-63.0784-62.0544a29.5936 29.5936 0 0 0-21.4528-8.5504c-8.0896 0.1536-15.5648 3.5328-21.0944 9.4208L551.424 219.3408z" fill="#333333" /><path d="M839.7312 287.5904H293.632L277.6064 204.8a38.95296 38.95296 0 0 0-38.2976-31.5904H160.8192c-21.5552 0-39.0144 17.4592-39.0144 39.0144s17.4592 39.0144 39.0144 39.0144h46.2848l76.1856 393.5744c8.5504 44.032 47.3088 76.032 92.16 76.032h411.904c21.5552 0 39.0144-17.4592 39.0144-39.0144s-17.4592-39.0144-39.0144-39.0144H375.4496c-7.5776 0-14.08-5.376-15.5136-12.8l-9.8304-45.6192h430.6432c24.2688 0 45.8752-15.2576 54.0672-38.0928l58.9824-181.9136c13.3632-37.4784-14.336-76.8-54.0672-76.8z" fill="#FFBE4A" /><path d="M200.4992 204.8l8.7552 45.3632a46.2336 46.2336 0 0 0 45.3632 37.4272h39.0144L277.6064 204.8a39.00416 39.00416 0 0 0-38.2976-31.5904H162.2016c18.688 0 34.7648 13.2096 38.2976 31.5904zM839.7312 287.5904h-77.1072c39.7312 0 67.4304 39.3216 54.0672 76.7488l-58.9824 181.9136a57.3952 57.3952 0 0 1-54.0672 38.0928h77.1072c24.2688 0 45.8752-15.2576 54.0672-38.0928l58.9824-181.9136c13.3632-37.4272-14.336-76.7488-54.0672-76.7488zM787.3536 642.7648h-77.1072c21.5552 0 39.0144 17.4592 39.0144 39.0144s-17.4592 39.0144-39.0144 39.0144h77.1072c21.5552 0 39.0144-17.4592 39.0144-39.0144s-17.4592-39.0144-39.0144-39.0144zM356.8128 570.5728h-22.528c-13.9264 0-24.4736 12.5952-21.9648 26.3168 3.3792 18.4832 6.0416 28.1088 7.424 34.2016 2.4576 10.8032 9.0624 34.304 68.864 25.2416-30.8736-29.44-35.0208-77.9264-31.7952-85.76z" fill="#F2842B" /><path d="M787.3536 736.2048H375.4496c-52.224 0-97.28-37.2224-107.2128-88.4736L194.4576 266.5984h-33.5872c-30.0032 0-54.3744-24.4224-54.3744-54.3744s24.3712-54.3744 54.3744-54.3744h78.4896c26.0096 0 48.4352 18.5344 53.4016 44.032l13.6192 70.3488h533.4528c23.6544 0 45.8752 11.52 59.4944 30.8736 13.6192 19.3024 16.9984 44.1344 9.0624 66.4064l-58.8288 181.504c-10.4448 29.3376-37.9904 48.6912-68.6592 48.6912H369.152l5.8368 27.0336c0.1024 0.512 0.3072 0.6656 0.512 0.6656h411.904c30.0032 0 54.3744 24.3712 54.3744 54.3744s-24.4224 54.4256-54.4256 54.4256zM160.8192 188.5696c-13.056 0-23.6544 10.5984-23.6544 23.6544s10.5984 23.6544 23.6544 23.6544h46.2848a15.4112 15.4112 0 0 1 15.104 12.4416l76.1856 393.5744c7.1168 36.864 39.5264 63.5904 77.056 63.5904h411.904c13.056 0 23.6544-10.5984 23.6544-23.6544s-10.5984-23.6544-23.6544-23.6544H375.4496c-14.8992 0-27.7504-10.5984-30.6176-25.2416l-9.728-45.312c-0.9728-4.5568 0.1536-9.2672 3.072-12.9024 2.9184-3.584 7.3216-5.6832 11.9296-5.6832h430.6432c17.7152 0 33.6384-11.2128 39.5776-27.904l58.8288-181.504c4.8128-13.4656 2.9184-27.4944-5.0688-38.8096a41.6 41.6 0 0 0-34.3552-17.8176H293.632a15.4112 15.4112 0 0 1-15.104-12.4416l-16.0256-82.7904a23.69024 23.69024 0 0 0-23.2448-19.1488H160.8192z" fill="#333333" /><path d="M384.512 821.1456m-57.7536 0a57.7536 57.7536 0 1 0 115.5072 0 57.7536 57.7536 0 1 0-115.5072 0Z" fill="#FFBE4A" /><path d="M384.512 763.392c-7.3728 0-14.4384 1.4336-20.8896 3.9424 21.5552 8.3968 36.864 29.2864 36.864 53.8112s-15.3088 45.4144-36.864 53.8112c6.5024 2.5088 13.5168 3.9424 20.8896 3.9424 31.8976 0 57.7536-25.856 57.7536-57.7536S416.4608 763.392 384.512 763.392z" fill="#F2842B" /><path d="M768.6144 821.1456m-57.7536 0a57.7536 57.7536 0 1 0 115.5072 0 57.7536 57.7536 0 1 0-115.5072 0Z" fill="#FFBE4A" /><path d="M772.1472 763.392c-7.3728 0-14.4384 1.4336-20.8896 3.9424 21.5552 8.3968 36.864 29.2864 36.864 53.8112s-15.3088 45.4144-36.864 53.8112c6.5024 2.5088 13.5168 3.9424 20.8896 3.9424 31.8976 0 57.7536-25.856 57.7536-57.7536s-25.856-57.7536-57.7536-57.7536z" fill="#F2842B" /><path d="M375.9616 809.6256m-14.1824 0a14.1824 14.1824 0 1 0 28.3648 0 14.1824 14.1824 0 1 0-28.3648 0Z" fill="#FFFFFF" /><path d="M760.2688 809.6256m-14.1824 0a14.1824 14.1824 0 1 0 28.3648 0 14.1824 14.1824 0 1 0-28.3648 0Z" fill="#FFFFFF" /><path d="M384.512 894.2592c-40.3456 0-73.1136-32.8192-73.1136-73.1136s32.8192-73.1136 73.1136-73.1136 73.1136 32.8192 73.1136 73.1136-32.768 73.1136-73.1136 73.1136z m0-115.5072c-23.3984 0-42.3936 18.9952-42.3936 42.3936s18.9952 42.3936 42.3936 42.3936 42.3936-19.0464 42.3936-42.3936-18.9952-42.3936-42.3936-42.3936z" fill="#333333" /><path d="M768.6144 894.2592c-40.3456 0-73.1136-32.8192-73.1136-73.1136s32.8192-73.1136 73.1136-73.1136 73.1136 32.8192 73.1136 73.1136-32.768 73.1136-73.1136 73.1136z m0-115.5072c-23.3984 0-42.3936 18.9952-42.3936 42.3936s18.9952 42.3936 42.3936 42.3936 42.3936-19.0464 42.3936-42.3936-18.9952-42.3936-42.3936-42.3936z" fill="#333333" /><path d="M574.3104 378.7776h-27.5968c-8.4992 0-15.36-6.8608-15.36-15.36s6.8608-15.36 15.36-15.36h27.5968c8.4992 0 15.36 6.8608 15.36 15.36s-6.8608 15.36-15.36 15.36z" fill="#FFFFFF" /><path d="M481.9968 378.7776h-145.408c-8.4992 0-15.36-6.8608-15.36-15.36s6.8608-15.36 15.36-15.36h145.408c8.4992 0 15.36 6.8608 15.36 15.36s-6.8608 15.36-15.36 15.36z" fill="#FFFFFF" /></svg>