<?xml version="1.0" standalone="no"?><!DOCTYPE svg PUBLIC "-//W3C//DTD SVG 1.1//EN" "http://www.w3.org/Graphics/SVG/1.1/DTD/svg11.dtd"><svg class="icon" width="64px" height="64.00px" viewBox="0 0 1024 1024" version="1.1" xmlns="http://www.w3.org/2000/svg"><path d="M922.9824 329.3696v-26.7264c0-64.256-50.3296-116.3264-112.4352-116.3264H222.3104c-62.1056 0-112.4352 52.0704-112.4352 116.3264v26.7264h813.1072zM109.9264 401.152v330.24c0 64.256 50.3296 116.3264 112.4352 116.3264h588.2368c62.1056 0 112.4352-52.0704 112.4352-116.3264v-330.24H109.9264z" fill="#5BC7FC" /><path d="M829.7984 401.152v330.24c0 64.256-50.3296 116.3264-112.4352 116.3264h93.2352c62.1056 0 112.4352-52.0704 112.4352-116.3264v-330.24h-93.2352zM780.4928 192.4096s50.0224 21.2992 50.0224 136.96h88.2176s32.3584-152.2176-138.24-136.96z" fill="#25C3F4" /><path d="M922.9824 344.7296H109.9264c-8.4992 0-15.36-6.8608-15.36-15.36v-26.7264c0-72.6016 57.344-131.6864 127.7952-131.6864h588.2368c70.4512 0 127.7952 59.0848 127.7952 131.6864v26.7264c-0.0512 8.448-6.912 15.36-15.4112 15.36z m-797.696-30.72h782.3872v-11.3664c0-55.6544-43.52-100.9664-97.0752-100.9664H222.3104c-53.504 0-97.0752 45.312-97.0752 100.9664v11.3664zM810.5984 863.1296H222.3104c-70.4512 0-127.7952-59.0848-127.7952-131.6864v-330.24c0-8.4992 6.8608-15.36 15.36-15.36h813.1072c8.4992 0 15.36 6.8608 15.36 15.36v330.24c0 72.6016-57.2928 131.6864-127.744 131.6864zM125.2864 416.512v314.88c0 55.6544 43.52 100.9664 97.0752 100.9664h588.2368c53.504 0 97.0752-45.312 97.0752-100.9664v-314.88H125.2864z" fill="#333333" /><path d="M250.4704 574.8736h-47.3088c-19.7632 0-35.84-16.0768-35.84-35.84v-47.3088c0-19.7632 16.0768-35.84 35.84-35.84h47.3088c19.7632 0 35.84 16.0768 35.84 35.84v47.3088c0 19.7632-16.0768 35.84-35.84 35.84z m-47.3088-88.2688c-2.816 0-5.12 2.304-5.12 5.12v47.3088c0 2.816 2.304 5.12 5.12 5.12h47.3088c2.816 0 5.12-2.304 5.12-5.12v-47.3088c0-2.816-2.304-5.12-5.12-5.12h-47.3088zM400.4864 574.8736h-47.3088c-19.7632 0-35.84-16.0768-35.84-35.84v-47.3088c0-19.7632 16.0768-35.84 35.84-35.84h47.3088c19.7632 0 35.84 16.0768 35.84 35.84v47.3088c0 19.7632-16.0768 35.84-35.84 35.84z m-47.3088-88.2688c-2.816 0-5.12 2.304-5.12 5.12v47.3088c0 2.816 2.304 5.12 5.12 5.12h47.3088c2.816 0 5.12-2.304 5.12-5.12v-47.3088c0-2.816-2.304-5.12-5.12-5.12h-47.3088z" fill="#FFFFFF" /><path d="M544.4096 772.7616h-13.4144c-6.5536 0-12.3392-4.1472-14.4896-10.2912l-43.9808-126.5664a15.37024 15.37024 0 0 1 29.0304-10.0864l36.1472 103.8848 35.4304-103.8336c2.7648-8.0384 11.4688-12.288 19.5072-9.5744 8.0384 2.7648 12.3392 11.4688 9.5744 19.5072l-43.1616 126.5664a15.5648 15.5648 0 0 1-14.6432 10.3936zM656.896 772.7616c-8.4992 0-15.36-6.8608-15.36-15.36v-126.5664c0-8.4992 6.8608-15.36 15.36-15.36s15.36 6.8608 15.36 15.36v126.5664c0 8.4992-6.8608 15.36-15.36 15.36zM741.5296 772.7616c-8.4992 0-15.36-6.8608-15.36-15.36v-126.5664c0-8.4992 6.8608-15.36 15.36-15.36h34.7648c29.6448 0 53.76 24.1152 53.76 53.76s-24.1152 53.76-53.76 53.76h-19.4048v34.3552c0 8.5504-6.8608 15.4112-15.36 15.4112z m15.36-80.4352h19.4048c12.6976 0 23.04-10.3424 23.04-23.04s-10.3424-23.04-23.04-23.04h-19.4048v46.08z" fill="#333333" /><path d="M503.296 273.2032h-25.9584c-8.4992 0-15.36-6.8608-15.36-15.36s6.8608-15.36 15.36-15.36h25.9584c8.4992 0 15.36 6.8608 15.36 15.36s-6.8608 15.36-15.36 15.36zM401.8176 273.2032H217.344c-8.4992 0-15.36-6.8608-15.36-15.36s6.8608-15.36 15.36-15.36h184.4736c8.4992 0 15.36 6.8608 15.36 15.36s-6.8608 15.36-15.36 15.36z" fill="#FFFFFF" /></svg>