<?xml version="1.0" standalone="no"?><!DOCTYPE svg PUBLIC "-//W3C//DTD SVG 1.1//EN" "http://www.w3.org/Graphics/SVG/1.1/DTD/svg11.dtd"><svg class="icon" width="64px" height="64.00px" viewBox="0 0 1024 1024" version="1.1" xmlns="http://www.w3.org/2000/svg"><path d="M871.2704 515.4304h-40.2944c-18.0736-53.248-52.6336-98.816-97.6384-130.6624V297.6256c0-13.312-13.568-22.3232-25.8048-17.1008l-50.4832 21.3504c0.5632 6.3488 0.9216 12.7488 0.9216 19.2512 0 47.0528-15.4112 90.5728-41.4208 125.696H276.5312c-15.36-20.736-26.9824-44.3904-33.9456-69.9904-74.24 46.6432-123.648 129.2288-123.648 223.3856 0 96 51.3024 180.0192 128 226.1504v46.7968a28.928 28.928 0 0 0 28.928 28.928h80.5376a28.928 28.928 0 0 0 28.928-28.928v-9.216h195.8912c7.68 0 15.2064-0.4096 22.7328-1.024v10.24a28.928 28.928 0 0 0 28.928 28.928h71.5264a28.928 28.928 0 0 0 28.928-28.928V815.616c46.0288-32.5632 81.152-79.4112 98.816-134.1952h39.1168c21.1968 0 38.3488-17.152 38.3488-38.3488v-89.2416c0.0512-21.248-17.152-38.4-38.3488-38.4z" fill="#FF6464" /><path d="M871.2704 515.4304h-40.2944c-18.0736-53.248-52.6336-98.816-97.6384-130.6624V297.6256c0-13.312-13.568-22.3232-25.8048-17.1008l-50.4832 21.3504c0.5632 6.3488 0.9216 12.7488 0.9216 19.2512 0 10.8032-0.8704 21.4528-2.4064 31.7952l27.4432-9.5232a4.77696 4.77696 0 0 1 6.3488 4.5056v64.512c0 8.5504 4.2496 16.5888 11.4176 21.2992 27.2384 17.92 88.576 76.288 88.576 174.5408 0 100.352-92.0576 162.304-120.8832 183.7056-6.7072 5.0176-10.752 12.8512-10.752 21.1968v43.1104c0 14.2336 3.584 34.816-11.264 45.7216h57.9584a28.928 28.928 0 0 0 28.928-28.928v-57.5488c46.0288-32.5632 81.152-79.4112 98.816-134.1952h39.1168c21.1968 0 38.3488-17.152 38.3488-38.3488v-89.2416c0.0512-21.1456-17.152-38.2976-38.3488-38.2976z" fill="#FF3B3B" /><path d="M616.4992 446.72a210.46784 210.46784 0 0 0 41.4208-125.696c0-116.7872-94.6688-211.4048-211.4048-211.4048-116.7872 0-211.4048 94.6688-211.4048 211.4048 0 47.0528 15.4112 90.5728 41.4208 125.696h339.968z" fill="#FFFCE3" /><path d="M871.2704 500.0704h-29.5424c-18.7392-48.5376-51.3536-91.6992-93.0816-123.0848v-79.36c0-11.4176-5.6832-21.9648-15.2064-28.3136a33.89952 33.89952 0 0 0-32-2.9696l-32 13.5168c-19.456-105.4208-111.9744-185.6-222.976-185.6-125.0304 0-226.7648 101.7344-226.7648 226.7648 0 16.6912 1.8432 33.0752 5.3248 48.9984-76.1856 52.224-121.4464 137.3696-121.4464 230.144 0 95.8976 47.6672 182.9888 128 234.7008v38.2464c0 24.4224 19.8656 44.288 44.288 44.288h80.5376c22.3232 0 40.8576-16.5888 43.8272-38.0928h180.9408c2.56 0 5.12-0.0512 7.7824-0.1024 2.9696 21.5552 21.504 38.2464 43.8784 38.2464h71.5264c24.4224 0 44.288-19.8656 44.288-44.288v-49.7152c42.8032-32.2048 75.9296-76.5952 94.4128-126.6176h28.2112c29.6448 0 53.7088-24.1152 53.7088-53.7088v-89.2416c0.0512-29.696-24.064-53.8112-53.7088-53.8112zM446.5152 124.9792c102.0928 0 186.1632 78.4384 195.2256 178.176 0.256 3.072 0.4608 6.0416 0.6144 8.96 0.1536 2.9696 0.2048 5.9392 0.2048 8.9088 0 39.7312-11.7248 77.7216-33.9968 110.336h-324.096c-2.5088-3.6352-4.8128-7.3728-7.0656-11.1616-0.4096-0.6656-0.8192-1.3312-1.1776-1.9968-1.9456-3.3792-3.7376-6.8096-5.4272-10.2912-0.6144-1.2288-1.1776-2.4064-1.7408-3.6352-1.4848-3.1232-2.8672-6.2976-4.1472-9.5232-0.6656-1.6896-1.3312-3.328-1.9456-5.0176-0.9728-2.56-1.8432-5.12-2.7136-7.68-0.768-2.304-1.4336-4.608-2.1504-6.9632-4.9664-17.408-7.6288-35.5328-7.6288-54.0672 0-108.0832 87.9616-196.0448 196.0448-196.0448z m447.7952 518.0416a22.9888 22.9888 0 0 1-22.9888 22.9888h-39.1168c-6.656 0-12.544 4.3008-14.592 10.6496-16.384 50.5856-49.408 95.488-93.0816 126.3616-4.0448 2.8672-6.5024 7.5776-6.5024 12.544v57.5488c0 7.4752-6.0928 13.568-13.568 13.568h-71.5264c-7.4752 0-13.568-6.0928-13.568-13.568v-10.24a15.34976 15.34976 0 0 0-16.64-15.3088c-7.7312 0.6656-14.7456 0.9728-21.4016 0.9728H385.3312c-8.4992 0-15.36 6.8608-15.36 15.36v9.216c0 7.4752-6.0928 13.568-13.568 13.568H275.8656c-7.4752 0-13.568-6.0928-13.568-13.568v-46.7968a15.36 15.36 0 0 0-7.424-13.1584c-75.52-45.4144-120.576-125.0304-120.576-212.992 0-79.2064 37.0176-152.2688 99.9424-199.1168 3.584 9.5232 7.8848 18.8416 12.8 27.8528 0.2048 0.3584 0.3584 0.6656 0.5632 1.024 2.304 4.1984 4.7616 8.3456 7.3728 12.4416 0.3072 0.512 0.6656 0.9728 0.9728 1.4848 2.6112 4.0448 5.376 8.0896 8.2944 12.032 2.9184 3.8912 7.4752 6.1952 12.3392 6.1952h340.0192c4.864 0 9.4208-2.304 12.3392-6.1952 29.0816-39.2704 44.4416-85.8624 44.4416-134.8096 0-3.072-0.0512-6.1952-0.2048-9.3696l40.3968-17.0496c1.3312-0.5632 2.4064-0.1536 3.0208 0.256 0.6656 0.4608 1.4336 1.28 1.4336 2.7136v87.1424c0 4.9664 2.4064 9.6768 6.5024 12.544 42.5984 30.1568 75.264 73.8304 91.9552 123.0336a15.36512 15.36512 0 0 0 14.5408 10.4448h40.2944c12.6976 0 22.9888 10.3424 22.9888 22.9888v89.2416z" fill="#333333" /><path d="M622.0288 498.5856c-39.9872 0-72.4992 32.512-72.4992 72.4992 0 8.4992 6.8608 15.36 15.36 15.36s15.36-6.8608 15.36-15.36c0-23.04 18.7392-41.7792 41.7792-41.7792s41.7792 18.7392 41.7792 41.7792c0 8.4992 6.8608 15.36 15.36 15.36s15.36-6.8608 15.36-15.36c0-39.9872-32.512-72.4992-72.4992-72.4992zM364.9536 318.8736c-8.4992 0-15.36 6.8608-15.36 15.36s6.8608 15.36 15.36 15.36h66.2016v38.9632c0 8.4992 6.8608 15.36 15.36 15.36s15.36-6.8608 15.36-15.36v-38.9632h66.2016c8.4992 0 15.36-6.8608 15.36-15.36s-6.8608-15.36-15.36-15.36H461.8752v-36.6592h66.2016c8.4992 0 15.36-6.8608 15.36-15.36s-6.8608-15.36-15.36-15.36H476.7232l38.0416-43.8784c5.5296-6.4 4.864-16.128-1.536-21.6576a15.3856 15.3856 0 0 0-21.6576 1.536l-45.0048 51.9168-45.0048-51.9168a15.3344 15.3344 0 0 0-21.6576-1.536 15.3344 15.3344 0 0 0-1.536 21.6576l38.0416 43.8784H364.9536c-8.4992 0-15.36 6.8608-15.36 15.36s6.8608 15.36 15.36 15.36h66.2016v36.6592H364.9536z" fill="#333333" /><path d="M248.7808 695.8592c-5.4272 0-10.6496-2.8672-13.4656-7.936-20.4288-37.12-27.0848-77.6704-19.2-117.2992a15.38048 15.38048 0 0 1 18.0736-12.0832c8.3456 1.6384 13.7216 9.728 12.0832 18.0736-6.5024 32.9216-1.1264 65.3824 16.0256 96.512 4.096 7.424 1.3824 16.7936-6.0416 20.8896-2.4064 1.2288-4.9664 1.8432-7.4752 1.8432z" fill="#FFFFFF" /><path d="M246.0672 544.1024c-2.304 0-4.6592-0.512-6.8608-1.6384a15.34464 15.34464 0 0 1-6.8608-20.5824c5.1712-10.3424 9.472-16.3328 9.9328-16.9472a15.32416 15.32416 0 0 1 21.4528-3.328c6.8096 5.0176 8.3456 14.592 3.3792 21.4016-0.1024 0.1536-3.328 4.7104-7.2704 12.5952a15.4368 15.4368 0 0 1-13.7728 8.4992z" fill="#FFFFFF" /></svg>