<?xml version="1.0" standalone="no"?><!DOCTYPE svg PUBLIC "-//W3C//DTD SVG 1.1//EN" "http://www.w3.org/Graphics/SVG/1.1/DTD/svg11.dtd"><svg class="icon" width="64px" height="64.00px" viewBox="0 0 1024 1024" version="1.1" xmlns="http://www.w3.org/2000/svg"><path d="M679.8848 285.5424l31.7952 37.5808-22.1184 327.5264c-0.512 7.3216-6.2464 12.9536-13.2096 12.9536h-14.6432c-6.8608 0-12.5952-5.5296-13.2096-12.7488l-26.368-322.048 57.7536-43.264z" fill="#FFBE4A" /><path d="M622.1824 328.8064l7.1168 87.2448 42.752-26.4704-4.7104 274.0224h9.0112c6.9632 0 12.6976-5.632 13.2096-12.9536L711.68 323.1232l-31.7952-37.5808-57.7024 43.264z" fill="#F2842B" /><path d="M676.4032 678.9632h-14.6432c-15.0016 0-27.2384-11.52-28.5184-26.8288l-26.368-322.048a15.5136 15.5136 0 0 1 6.0928-13.568L670.72 273.2544c6.5024-4.864 15.7184-3.84 20.9408 2.3552l31.7952 37.5808c2.56 3.0208 3.84 6.9632 3.584 10.9568l-22.1184 327.5264c-1.024 15.3088-13.568 27.2896-28.5184 27.2896z m-12.6464-30.72h10.5984l21.6064-319.9488-18.432-21.8112-39.3216 29.4912 25.5488 312.2688z" fill="#333333" /><path d="M711.68 323.1232s-169.8816 10.496-223.7952 316.16c-1.3312 7.5264-7.6288 12.9536-14.8992 12.9536H214.2208c-21.504 0-81.2032-12.3392-90.9824-86.528s134.0416-149.3504 134.0416-149.3504c27.392 22.6816 116.1728 98.3552 187.3408-21.3504s138.6496-251.0848 202.496-250.3168S724.8896 228.096 711.68 323.1232z" fill="#FF6464" /><path d="M647.1168 144.6912c-3.4816-0.0512-7.0144 0.3584-10.5472 1.1264 19.968 27.2896 38.8096 70.912 30.3616 134.6048-68.2496 37.0688-184.6784 142.6944-240.4352 351.0272 7.9872 7.424 16.9984 14.336 26.7776 20.8384h19.712c7.2704 0 13.568-5.4272 14.8992-12.9536C541.8496 333.6704 711.68 323.1232 711.68 323.1232c13.2096-95.0272-0.7168-177.664-64.5632-178.432z" fill="#FF4436" /><path d="M473.0368 667.648H214.2208c-34.56 0-95.7952-21.0432-106.1888-99.8912-10.8544-82.432 126.464-156.7744 142.1312-164.9664 5.4784-2.8672 12.1344-2.1504 16.896 1.792l1.024 0.8704c16.64 13.7728 55.6032 46.0288 95.488 39.168 24.9344-4.3008 47.7696-23.6032 67.84-57.3952 8.8576-14.848 17.6128-29.9008 26.368-44.8512 66.6624-114.2272 124.2624-212.992 188.7744-212.992h0.768c22.1184 0.256 41.216 8.96 55.1424 25.1904 34.304 39.8848 32.2048 114.8416 24.4736 170.752a15.38048 15.38048 0 0 1-14.1824 13.2096c-0.7168 0.0512-39.9872 3.5328-84.7872 41.5744-42.1888 35.7888-98.1504 110.336-124.8768 261.9392-2.6624 14.7968-15.3088 25.6-30.0544 25.6zM255.5392 434.8416c-41.6256 23.552-123.4432 80.64-117.0432 128.9216C147.8656 634.88 207.4624 636.928 214.2208 636.928h258.816c47.2064-268.9024 182.272-318.2592 224.9216-327.168 7.424-63.6416 0.7168-112.5376-18.7392-135.2192-8.2432-9.6256-18.7904-14.336-32.2048-14.4896h-0.4096c-46.8992 0-105.5232 100.5056-162.2528 197.7344-8.7552 15.0016-17.5616 30.1568-26.4704 45.1072-24.8832 41.8304-54.784 66.048-88.9856 71.936-48.2816 8.2944-90.7264-21.8112-113.3568-39.9872zM711.68 323.1232z" fill="#333333" /><path d="M138.5472 610.56c21.9136 34.7648 59.5456 41.728 75.6736 41.728h258.816c7.2704 0 13.568-5.4784 14.8992-13.0048 1.7408-9.8816 3.6352-19.456 5.5808-28.7232H138.5472z" fill="#FFBE4A" /><path d="M473.0368 667.648H214.2208c-26.6752 0-65.8944-12.8-88.6784-48.896-2.9696-4.7104-3.1744-10.7008-0.4608-15.616s7.8336-7.936 13.4656-7.936h354.9184a15.36 15.36 0 0 1 11.9296 5.6832c2.9184 3.584 4.0448 8.3456 3.072 12.8512-1.9456 9.1136-3.7888 18.5856-5.4784 28.2112-2.56 14.8992-15.2064 25.7024-29.952 25.7024z m-297.0624-41.728c14.08 8.2944 28.9792 11.008 38.2464 11.008h258.816c0.5632-3.7376 1.1264-7.3728 1.792-11.008H175.9744z" fill="#333333" /><path d="M185.7024 557.6704c-2.7136 0-5.4784-0.7168-7.9872-2.2528a15.37536 15.37536 0 0 1-5.0688-21.1456c23.1424-37.7856 64.0512-60.8256 65.792-61.7984 7.424-4.096 16.7936-1.4336 20.8896 5.9392s1.4848 16.7424-5.9392 20.8896c-0.6656 0.3584-35.7888 20.3776-54.528 50.9952a15.4112 15.4112 0 0 1-13.1584 7.3728z" fill="#FFFFFF" /><path d="M859.0336 334.592l43.776 49.2032-30.464 428.3392a18.2272 18.2272 0 0 1-18.176 16.9472h-20.1728a18.2272 18.2272 0 0 1-18.176-16.6912l-36.3008-421.2224 79.5136-56.576z" fill="#FFBE4A" /><path d="M779.5712 391.168l9.8304 114.0736 58.88-34.6112-6.5024 358.4h12.4416c9.5744 0 17.5104-7.3728 18.176-16.9472l30.464-428.3392-43.776-49.2032-79.5136 56.6272z" fill="#F2842B" /><path d="M854.1696 844.4416h-20.1728c-17.5616 0-31.9488-13.2096-33.4848-30.72l-36.3008-421.2224c-0.4608-5.4272 1.9456-10.7008 6.4-13.824l79.5136-56.576a15.36 15.36 0 0 1 20.3776 2.304l43.776 49.152c2.7648 3.072 4.1472 7.168 3.84 11.3152l-30.464 428.3392c-1.1776 17.5104-15.9232 31.232-33.4848 31.232z m-58.5728-445.8496l35.5328 412.4672c0.1536 1.4848 1.3824 2.6112 2.8672 2.6112h20.1728c1.4848 0 2.7648-1.1776 2.8672-2.6624l30.0032-421.888-30.3104-34.048-61.1328 43.52z" fill="#333333" /><path d="M902.8608 383.744s-233.9328 13.7728-308.224 413.5424a20.84864 20.84864 0 0 1-20.48 16.9472H217.7024c-29.6448 0-111.8208-16.1792-125.2864-113.152S276.992 505.7024 276.992 505.7024c37.7344 29.6448 160 128.6656 257.9968-27.9552s190.976-328.3968 278.8864-327.424c87.9616 1.024 107.1616 109.1584 88.9856 233.4208z" fill="#FF6464" /><path d="M813.9264 150.3232c-4.8128-0.0512-9.6768 0.512-14.4896 1.4336 27.5456 35.6864 53.4528 92.7744 41.7792 176.0768-93.952 48.4864-254.3104 186.624-331.1104 459.1104 11.008 9.728 23.4496 18.7904 36.9152 27.2896h27.136c9.984 0 18.6368-7.1168 20.48-16.9472 74.2912-399.7696 308.224-413.5424 308.224-413.5424 18.176-124.2624-1.024-232.3968-88.9344-233.4208z" fill="#FF4436" /><path d="M113.5104 759.6544c30.208 45.4656 81.9712 54.5792 104.192 54.5792h356.4032c10.0352 0 18.6368-7.168 20.48-16.9984 2.4064-12.9024 4.9664-25.4464 7.68-37.5808H113.5104z" fill="#FFBE4A" /><path d="M887.4496 168.2432c-18.5344-21.7088-43.2128-32.9216-73.3184-33.2288h-0.9216c-85.3504 0-167.68 134.0416-254.8736 275.9168-12.032 19.5584-24.1152 39.2704-36.3008 58.6752-28.2624 45.1072-60.7232 71.168-96.512 77.4144-58.2144 10.1888-113.8176-33.5872-137.5744-52.2752l-1.3824-1.1264c-4.6592-3.6864-11.008-4.3008-16.3328-1.6896-8.4992 4.1984-207.7696 104.4992-192.9728 211.2512 13.6192 98.048 92.0064 125.44 138.0864 126.3616 1.0752 0.0512 1.8944 0.0512 2.4576 0.0512h356.4032c2.7136 0 5.3248-0.3072 7.8848-0.8704a35.96288 35.96288 0 0 0 26.3168-23.5008c0.5632-1.6896 1.0752-3.3792 1.3824-5.1712 2.304-12.4416 4.864-24.832 7.5264-36.7616 39.5264-175.7184 111.6672-264.9088 167.0144-309.1456 63.0272-50.432 118.272-54.9376 119.5008-55.04a15.3344 15.3344 0 0 0 14.2336-13.1072c14.6432-100.1984 3.7376-177.5104-30.6176-217.7536zM217.7024 798.8736c-0.512 0-1.0752 0-1.5872-0.0512-7.6288-0.256-39.68-2.6624-67.2768-23.808h434.4832c-1.3312 6.3488-2.56 12.8512-3.7888 19.4048-0.3584 1.792-1.5872 3.2256-3.1744 3.9424-0.1024 0.0512-0.2048 0.1536-0.3072 0.1536-0.3072 0.1024-0.6656 0.1024-1.024 0.1536-0.3072 0.0512-0.5632 0.1536-0.8704 0.1536H217.7024z m671.488-428.7488c-21.9648 3.9936-69.4784 16.9472-122.112 58.4192-58.624 46.1824-134.4512 137.8816-176.896 315.7504H122.2656c-6.8608-12.1856-12.0832-27.0848-14.6432-45.3632-9.3184-66.9184 110.6944-145.0496 167.6288-175.104 29.7472 23.04 88.9344 65.024 155.4944 53.4016 44.7488-7.7824 84.224-38.5536 117.2992-91.392 12.2368-19.5072 24.3712-39.2704 36.4032-58.9312 78.9504-128.4608 160.512-261.2736 228.7104-261.2736h0.6144c21.1456 0.256 37.632 7.5776 50.3296 22.4768 26.9312 31.5904 35.9424 97.536 25.088 182.016z" fill="#333333" /><path d="M178.432 685.7728c-2.8672 0-5.7344-0.768-8.2944-2.4576a15.42656 15.42656 0 0 1-4.608-21.248c31.1296-48.2816 86.272-77.7728 88.576-79.0016 7.5264-3.9936 16.7936-1.0752 20.736 6.4s1.0752 16.7936-6.4 20.736c-1.024 0.5632-50.5856 27.3408-77.1072 68.5056-2.9184 4.608-7.8336 7.0656-12.9024 7.0656z" fill="#FFFFFF" /></svg>