<?xml version="1.0" standalone="no"?><!DOCTYPE svg PUBLIC "-//W3C//DTD SVG 1.1//EN" "http://www.w3.org/Graphics/SVG/1.1/DTD/svg11.dtd"><svg class="icon" width="64px" height="64.00px" viewBox="0 0 1024 1024" version="1.1" xmlns="http://www.w3.org/2000/svg"><path d="M814.336 904.0896H216.0128c-52.2752 0-94.6176-42.3424-94.6176-94.6176V387.4304c0-52.2752 42.3424-94.6176 94.6176-94.6176h598.272c52.2752 0 94.6176 42.3424 94.6176 94.6176v422.0416c0.0512 52.2752-42.3424 94.6176-94.5664 94.6176z" fill="#7BD3FF" /><path d="M811.7248 292.8128h-94.6688c53.6576 0 97.1776 43.52 97.1776 97.1776v416.9216c0 53.6576-43.52 97.1776-97.1776 97.1776h94.6688c53.6576 0 97.1776-43.52 97.1776-97.1776V389.9904c0.0512-53.6576-43.4688-97.1776-97.1776-97.1776z" fill="#5BC7FC" /><path d="M811.7248 292.8128H218.5728c-53.6576 0-97.1776 43.52-97.1776 97.1776V474.112h787.5072V389.9904c0.0512-53.6576-43.4688-97.1776-97.1776-97.1776z" fill="#F5D126" /><path d="M811.7248 292.8128h-94.6688c53.6576 0 97.1776 43.52 97.1776 97.1776V474.112h94.6688V389.9904c0.0512-53.6576-43.4688-97.1776-97.1776-97.1776z" fill="#F2B200" /><path d="M824.9856 292.8128l-28.5696-91.2896c-16.0256-51.2512-71.0144-79.4624-122.0096-62.5152L211.4048 292.8128h613.5808z" fill="#FFBE4A" /><path d="M717.2608 223.0272l21.8112 69.8368h85.9648l-28.5696-91.2896c-16.0256-51.2512-71.0144-79.4624-122.0096-62.5152l-49.92 16.5888c41.216-0.4608 79.7184 25.856 92.7232 67.3792z" fill="#F2842B" /><path d="M924.16 384.8704c0-0.4096-0.0512-0.8704-0.0512-1.28-1.792-51.0976-38.5024-93.4912-87.04-103.7312l-25.9072-82.8928c-9.0112-28.7744-28.7232-52.1728-55.552-65.8944-26.8288-13.7216-57.344-16.0768-85.9648-6.6048L207.616 277.9136c-55.5008 4.1984-99.5328 49.7664-101.376 105.8816 0 0.3072-0.0512 0.6144-0.0512 0.8704 0 0.9216-0.1536 1.8432-0.1536 2.7648v422.0416c0 60.6208 49.3568 109.9776 109.9776 109.9776h598.272c60.6208 0 109.9776-49.3568 109.9776-109.9776V387.4304c0.0512-0.8704-0.1024-1.6896-0.1024-2.56z m-787.4048 5.12c0-45.1072 36.7104-81.8176 81.8176-81.8176h593.152c45.1072 0 81.8176 36.7104 81.8176 81.8176V458.752H136.7552V389.9904zM679.3216 153.6c20.736-6.912 42.8032-5.1712 62.2592 4.7616 19.4048 9.9328 33.6896 26.9312 40.2432 47.7696l22.3232 71.3728H306.3808L679.3216 153.6z m135.0144 735.1296H216.0128c-43.7248 0-79.2576-35.5328-79.2576-79.2576V489.472h756.7872v320.0512c0.0512 43.6736-35.5328 79.2064-79.2064 79.2064z" fill="#333333" /><path d="M425.5232 749.4656H258.3552c-8.4992 0-15.36 6.8608-15.36 15.36s6.8608 15.36 15.36 15.36h167.168c8.4992 0 15.36-6.8608 15.36-15.36s-6.8608-15.36-15.36-15.36z" fill="#333333" /><path d="M502.4768 398.848h-24.5248c-8.4992 0-15.36-6.8608-15.36-15.36s6.8608-15.36 15.36-15.36h24.5248c8.4992 0 15.36 6.8608 15.36 15.36s-6.912 15.36-15.36 15.36z" fill="#FFFFFF" /><path d="M420.5056 398.848H220.7744c-8.4992 0-15.36-6.8608-15.36-15.36s6.8608-15.36 15.36-15.36h199.7312c8.4992 0 15.36 6.8608 15.36 15.36s-6.8608 15.36-15.36 15.36z" fill="#FFFFFF" /></svg>