<?xml version="1.0" standalone="no"?><!DOCTYPE svg PUBLIC "-//W3C//DTD SVG 1.1//EN" "http://www.w3.org/Graphics/SVG/1.1/DTD/svg11.dtd"><svg class="icon" width="64px" height="64.00px" viewBox="0 0 1024 1024" version="1.1" xmlns="http://www.w3.org/2000/svg"><path d="M823.3984 509.44c0-46.2848 30.464-85.4528 72.448-98.56a27.06944 27.06944 0 0 0 19.0976-25.8048V270.5408c0-50.3808-40.8064-91.1872-91.1872-91.1872H202.1376c-50.3808 0-91.1872 40.8064-91.1872 91.1872V384.512c0 12.032 7.9872 22.528 19.5072 25.9072 42.752 12.6464 73.984 52.1728 73.984 99.0208s-31.1808 86.3744-73.984 99.0208c-11.52 3.4304-19.5072 13.9264-19.5072 25.9072v103.7312c0 50.3808 40.8064 91.1872 91.1872 91.1872h621.568c50.3808 0 91.1872-40.8064 91.1872-91.1872v-104.2944c0-11.8784-7.7824-22.272-19.0976-25.8048-41.9328-13.1072-72.3968-52.2752-72.3968-98.56z" fill="#FF6464" /><path d="M895.8464 410.88a27.06944 27.06944 0 0 0 19.0976-25.8048V270.5408c0-50.3808-40.8064-91.1872-91.1872-91.1872h-99.6864c50.3808 0 91.1872 40.8064 91.1872 91.1872v114.5344c0 11.8784-7.7824 22.272-19.0976 25.8048-41.984 13.1072-72.448 52.224-72.448 98.56s30.464 85.4528 72.448 98.56c11.3152 3.5328 19.0976 13.9264 19.0976 25.8048v104.2944c0 50.3808-40.8064 91.1872-91.1872 91.1872h99.6864c50.3808 0 91.1872-40.8064 91.1872-91.1872v-104.2944c0-11.8784-7.7824-22.272-19.0976-25.8048-41.984-13.1072-72.448-52.224-72.448-98.56s30.464-85.4528 72.448-98.56z" fill="#F4403B" /><path d="M823.7568 844.6464H202.1376c-58.7264 0-106.5472-47.7696-106.5472-106.5472V634.368c0-18.944 12.288-35.2768 30.5152-40.6528 37.0688-10.9568 62.9248-45.6192 62.9248-84.2752 0-38.656-25.9072-73.3184-62.9248-84.2752-18.2784-5.376-30.5152-21.76-30.5152-40.6528V270.5408c0-58.7264 47.7696-106.5472 106.5472-106.5472h621.568c58.7264 0 106.5472 47.7696 106.5472 106.5472v114.5344c0 18.6368-12.032 34.8672-29.9008 40.448-36.864 11.52-61.6448 45.2096-61.6448 83.8656s24.7808 72.3456 61.6448 83.8656c17.8688 5.5808 29.8496 21.8624 29.8496 40.448v104.2944c0.1024 58.8288-47.7184 106.6496-106.4448 106.6496zM202.1376 194.7136c-41.8304 0-75.8272 33.9968-75.8272 75.8272V384.512c0 5.1712 3.4304 9.6768 8.4992 11.2128 50.0224 14.7968 84.9408 61.5424 84.9408 113.7664s-34.9184 98.9696-84.992 113.7664c-5.0688 1.4848-8.4992 5.9904-8.4992 11.2128v103.7312c0 41.8304 33.9968 75.8272 75.8272 75.8272h621.568c41.8304 0 75.8272-33.9968 75.8272-75.8272v-104.2944c0-5.12-3.328-9.5744-8.2944-11.1616-49.7664-15.5648-83.2512-61.0304-83.2512-113.2032s33.4336-97.6384 83.2512-113.2032a11.6736 11.6736 0 0 0 8.2944-11.1616V270.5408c0-41.8304-33.9968-75.8272-75.8272-75.8272H202.1376z" fill="#333333" /><path d="M612.608 558.592h-84.3264V497.7664h84.3264c8.4992 0 15.36-6.8608 15.36-15.36s-6.8608-15.36-15.36-15.36h-67.7888l80.128-108.1856a15.37024 15.37024 0 1 0-24.6784-18.3296l-86.1184 116.2752L425.472 340.4288a15.34464 15.34464 0 0 0-24.4224 18.5856l82.2784 108.032H413.2864c-8.4992 0-15.36 6.8608-15.36 15.36s6.8608 15.36 15.36 15.36h84.3264v60.7744H413.2864c-8.4992 0-15.36 6.8608-15.36 15.36s6.8608 15.36 15.36 15.36h84.3264v97.0752c0 8.4992 6.8608 15.36 15.36 15.36s15.36-6.8608 15.36-15.36V589.312h84.3264c8.4992 0 15.36-6.8608 15.36-15.36s-6.912-15.36-15.4112-15.36z" fill="#333333" /><path d="M190.464 365.1072c-8.4992 0-15.36-6.8608-15.36-15.36V288.768c0-26.9312 21.9136-48.8448 48.8448-48.8448h147.5584c8.4992 0 15.36 6.8608 15.36 15.36s-6.8608 15.36-15.36 15.36H223.9488c-9.984 0-18.1248 8.1408-18.1248 18.1248v60.928c0 8.5504-6.912 15.4112-15.36 15.4112zM478.72 270.6432h-36.608c-8.4992 0-15.36-6.8608-15.36-15.36s6.8608-15.36 15.36-15.36h36.608c8.4992 0 15.36 6.8608 15.36 15.36s-6.912 15.36-15.36 15.36z" fill="#FFFFFF" /></svg>