<?xml version="1.0" standalone="no"?><!DOCTYPE svg PUBLIC "-//W3C//DTD SVG 1.1//EN" "http://www.w3.org/Graphics/SVG/1.1/DTD/svg11.dtd"><svg class="icon" width="64px" height="64.00px" viewBox="0 0 1024 1024" version="1.1" xmlns="http://www.w3.org/2000/svg"><path d="M74.8544 529.9712l125.9008 234.8544a163.26656 163.26656 0 0 0 143.9232 86.1696h315.8528c59.2896 0 113.92-32.1024 142.6944-83.9168 52.6848-94.72 132.4544-238.592 143.2576-260.1984 16.3328-32.6656 32.6656-153.2416-77.8752-165.7856-110.5408-12.544-196.2496 59.0336-352.0512 59.0336-148.7872-2.56-301.0048-60.5184-357.5296-60.5184S18.3296 397.3632 74.8544 529.9712z" fill="#F5D126" /><path d="M402.7904 400.0768c20.3776 0 39.5264-1.2288 57.7536-3.328-129.4848-12.8-252.1088-57.1392-301.5168-57.1392-14.2336 0-30.2592 3.6864-45.312 11.3152 73.6768 16.9472 182.272 47.36 289.0752 49.152zM868.608 341.0432c-30.5152-3.4816-59.1872-0.512-87.9104 5.5808 81.8176 27.1872 66.9696 130.3552 52.0704 160.2048-10.8032 21.6064-90.5728 165.4272-143.2576 260.1984a163.24096 163.24096 0 0 1-142.6944 83.9168h113.7152c59.2896 0 113.92-32.1024 142.6944-83.9168 52.6848-94.72 132.4544-238.592 143.2576-260.1984 16.3328-32.6144 32.6144-153.1904-77.8752-165.7856z" fill="#F2B200" /><path d="M294.7584 299.8784s202.4448 64.8192 414.8736 0c-37.888-141.6192-323.1232-201.472-414.8736 0z" fill="#F5D126" /><path d="M624.4864 310.9376c-21.6064 6.6048-43.0592 11.776-64.256 15.9232 47.4112-3.2768 98.0992-11.3152 149.4016-26.9824-25.9584-96.9216-167.68-155.4944-284.0064-118.272 91.904 3.7888 179.0976 55.3984 198.8608 129.3312z" fill="#F2B200" /><path d="M660.5312 866.304H344.6784c-65.9456 0-126.3104-36.096-157.44-94.2592l-125.9008-234.8544-0.6144-1.2288c-33.792-79.36-18.4832-129.9456 0.3584-158.4128 26.0096-39.3728 69.0176-53.3504 97.9456-53.3504 23.8592 0 60.7744 8.9088 107.52 20.1728 71.8336 17.3056 161.2288 38.8608 250.2656 40.3456 75.8272 0 136.0896-17.9712 189.2352-33.8432 54.6304-16.2816 106.24-31.6928 164.3008-25.088 40.6016 4.608 71.0144 23.552 87.9616 54.7328 24.32 44.8512 15.5136 105.984 1.9456 133.1712-11.1616 22.3744-94.72 173.0048-143.5648 260.7616a178.78528 178.78528 0 0 1-156.16 91.8528zM88.7296 523.3152l125.5424 234.24c25.8048 48.128 75.776 78.0288 130.3552 78.0288H660.48c53.6576 0 103.2192-29.1328 129.28-76.032 48.6912-87.6032 131.9936-237.7728 142.9504-259.584 8.96-17.92 18.1248-68.7104-1.4336-104.7552-12.0832-22.3232-33.792-35.3792-64.4096-38.8608-51.8656-5.888-98.304 7.936-152.064 24.0128-55.1936 16.4352-117.7088 35.1232-198.2976 35.1232-92.672-1.5872-187.7504-24.4736-257.1776-41.216-43.008-10.3424-80.128-19.3024-100.3008-19.3024-21.2992 0-52.992 10.3424-72.2944 39.5776-20.992 31.6416-20.2752 76.1856 1.9968 128.768z" fill="#333333" /><path d="M506.9312 344.2688c-121.856 0-211.3024-27.9552-216.8832-29.7472-4.1984-1.3312-7.5776-4.4032-9.3696-8.3968-1.792-3.9936-1.7408-8.6016 0.0512-12.5952 43.4176-95.232 133.9904-146.688 242.3296-137.6768 98.7136 8.192 181.5552 65.792 201.4208 140.032 2.1504 7.9872-2.4576 16.2304-10.3424 18.6368-72.96 22.3232-144.384 29.7472-207.2064 29.7472zM316.928 290.048c51.3536 13.0048 208.5888 44.9536 372.992-0.4608-22.9888-54.9888-90.112-96.512-169.4208-103.1168-88.4736-7.3216-163.328 31.1296-203.5712 103.5776z" fill="#333333" /><path d="M250.7776 694.9888c-5.7344 0-11.2128-3.2256-13.8752-8.7552l-63.0272-131.6864a15.34976 15.34976 0 1 1 27.6992-13.2608l63.0272 131.6864c3.6352 7.6288 0.4096 16.8448-7.2192 20.48-2.0992 1.024-4.352 1.536-6.6048 1.536zM162.56 510.6688c-5.7344 0-11.2128-3.2256-13.8752-8.7552l-10.8032-22.528c-3.6352-7.68-0.4096-16.8448 7.2192-20.48 7.68-3.6864 16.8448-0.4096 20.48 7.2192l10.8032 22.528c3.6352 7.68 0.4096 16.8448-7.2192 20.48-2.0992 1.024-4.352 1.536-6.6048 1.536z" fill="#FFFFFF" /><path d="M411.4944 274.3808c-3.0208 0-6.0928-0.8704-8.7552-2.7648a15.36 15.36 0 0 1-3.7888-21.4016c1.6384-2.3552 16.7424-22.8864 47.0528-27.3408 8.3968-1.28 16.1792 4.5568 17.4592 12.9536 1.2288 8.3968-4.5568 16.1792-12.9536 17.4592-17.2544 2.56-26.2144 14.4384-26.3168 14.5408-3.072 4.3008-7.8336 6.5536-12.6976 6.5536z" fill="#FFFFFF" /></svg>