<?xml version="1.0" standalone="no"?><!DOCTYPE svg PUBLIC "-//W3C//DTD SVG 1.1//EN" "http://www.w3.org/Graphics/SVG/1.1/DTD/svg11.dtd"><svg class="icon" width="64px" height="64.00px" viewBox="0 0 1024 1024" version="1.1" xmlns="http://www.w3.org/2000/svg"><path d="M518.5536 510.6176m-399.7184 0a399.7184 399.7184 0 1 0 799.4368 0 399.7184 399.7184 0 1 0-799.4368 0Z" fill="#FFBE4A" /><path d="M518.5536 110.848c-17.4592 0-34.6112 1.2288-51.456 3.4304 196.4544 25.2416 348.3136 193.024 348.3136 396.3392 0 203.3152-151.8592 371.0464-348.3136 396.3392 16.8448 2.1504 33.9968 3.4304 51.456 3.4304 220.7744 0 399.7184-178.9952 399.7184-399.7184 0-220.8256-178.944-399.8208-399.7184-399.8208z" fill="#F2842B" /><path d="M518.5536 925.696c-228.9152 0-415.1296-186.2144-415.1296-415.0784s186.2144-415.0784 415.1296-415.0784c228.864 0 415.0784 186.2144 415.0784 415.0784s-186.2144 415.0784-415.0784 415.0784z m0-799.4368c-211.968 0-384.4096 172.4416-384.4096 384.3584s172.4416 384.3584 384.4096 384.3584 384.3584-172.4416 384.3584-384.3584-172.3904-384.3584-384.3584-384.3584z" fill="#333333" /><path d="M196.608 525.9776c-8.4992 0-15.36-6.8608-15.36-15.36 0-112.1792 55.552-216.7296 148.6336-279.6544 7.0144-4.7616 16.5888-2.9184 21.3504 4.1472 4.7616 7.0144 2.9184 16.5888-4.1472 21.3504C262.5024 313.6 211.968 408.6272 211.968 510.6176c0 8.4992-6.8608 15.36-15.36 15.36zM407.2448 223.7952c-6.2464 0-12.1344-3.84-14.3872-10.0352-2.9184-7.936 1.1264-16.7936 9.1136-19.712 14.592-5.376 29.7472-9.7792 45.0048-13.1072 8.2944-1.792 16.4864 3.4816 18.2784 11.776 1.792 8.2944-3.4816 16.4864-11.776 18.2784-13.8752 2.9696-27.5968 7.0144-40.8576 11.8784-1.792 0.6144-3.584 0.9216-5.376 0.9216z" fill="#FFFFFF" /><path d="M644.5056 598.8352h-110.592v-58.5728h110.592c8.4992 0 15.36-6.8608 15.36-15.36s-6.8608-15.36-15.36-15.36h-91.648l103.0656-160.7168c4.5568-7.1168 2.5088-16.64-4.6592-21.1968a15.3344 15.3344 0 0 0-21.1968 4.6592l-110.1824 171.8272-112.9472-172.032a15.4112 15.4112 0 0 0-21.2992-4.4032 15.4112 15.4112 0 0 0-4.4032 21.2992l105.472 160.6144H392.6016c-8.4992 0-15.36 6.8608-15.36 15.36s6.8608 15.36 15.36 15.36h110.592v58.5728h-110.592c-8.4992 0-15.36 6.8608-15.36 15.36s6.8608 15.36 15.36 15.36h110.592v91.392c0 8.4992 6.8608 15.36 15.36 15.36s15.36-6.8608 15.36-15.36v-91.392h110.592c8.4992 0 15.36-6.8608 15.36-15.36s-6.8608-15.4112-15.36-15.4112z" fill="#333333" /></svg>