<?xml version="1.0" standalone="no"?><!DOCTYPE svg PUBLIC "-//W3C//DTD SVG 1.1//EN" "http://www.w3.org/Graphics/SVG/1.1/DTD/svg11.dtd"><svg class="icon" width="64px" height="64.00px" viewBox="0 0 1024 1024" version="1.1" xmlns="http://www.w3.org/2000/svg"><path d="M841.984 869.0688l-32.6656-25.344c-57.4976-44.6464-139.1616-39.8848-191.1296 11.1104l-2.2528 2.2016c-56.9344 55.9104-148.2752 55.5008-204.7488-0.8704-51.7632-51.712-133.888-56.8832-191.7952-12.1344l-32.5632 25.1392c-9.5744 7.3728-23.3984 0.5632-23.3984-11.52V232.5504c0-59.3408 48.0768-107.4176 107.4176-107.4176h487.1168c59.3408 0 107.4176 48.0768 107.4176 107.4176V857.6c0.0512 12.0832-13.824 18.8928-23.3984 11.4688z" fill="#FFBE4A" /><path d="M768.0512 125.0816h-111.104c53.8112 0 97.3824 54.9888 97.3824 122.88V815.104c21.3504 3.7376 42.1376 13.1072 60.2112 28.6208l29.6448 25.344c8.6528 7.424 21.248 0.6144 21.248-11.4688V232.5504c0-59.3408-43.6224-107.4688-97.3824-107.4688z" fill="#F98B38" /><path d="M513.9968 913.8688c-41.216 0-82.432-15.616-113.664-46.7968-46.1824-46.08-119.9104-50.7904-171.52-10.8544l-32.512 25.1392a29.67552 29.67552 0 0 1-31.4368 3.1744c-10.2912-5.0688-16.7424-15.36-16.7424-26.8288V232.5504c0-67.6864 55.0912-122.7776 122.7776-122.7776h487.1168c67.6864 0 122.7776 55.0912 122.7776 122.7776V857.6c0 11.52-6.4 21.76-16.7424 26.8288-10.3424 5.0688-22.3744 3.84-31.488-3.2256l-32.6656-25.344c-51.2-39.7312-124.7232-35.4816-170.9568 9.9328l-2.2528 2.2016c-31.1808 30.6176-71.936 45.8752-112.6912 45.8752z m-205.7216-115.456c41.4208 0 82.6368 15.8208 113.7664 46.8992 50.2784 50.176 132.4544 50.5344 183.1424 0.768l2.2528-2.2016c57.1904-56.1152 148.0192-61.3888 211.3024-12.288l31.3344 24.32V232.5504c0-50.7904-41.3184-92.0576-92.0576-92.0576H270.848c-50.7904 0-92.0576 41.3184-92.0576 92.0576v623.4624l31.1808-24.1152a160.61952 160.61952 0 0 1 98.304-33.4848z" fill="#333333" /><path d="M656.9472 498.3296h-128.4096V424.2944h128.4096c8.4992 0 15.36-6.8608 15.36-15.36s-6.8608-15.36-15.36-15.36h-111.5136l75.8784-90.3168a15.36 15.36 0 0 0-1.8944-21.6576 15.36 15.36 0 0 0-21.6576 1.8944L512.512 384.9216l-83.968-101.376a15.35488 15.35488 0 0 0-21.6064-2.048 15.35488 15.35488 0 0 0-2.048 21.6064L479.744 393.472H369.3568c-8.4992 0-15.36 6.8608-15.36 15.36s6.8608 15.36 15.36 15.36h128.4096v74.0352H369.3568c-8.4992 0-15.36 6.8608-15.36 15.36s6.8608 15.36 15.36 15.36h128.4096v72.7552c0 8.4992 6.8608 15.36 15.36 15.36s15.36-6.8608 15.36-15.36v-72.7552h128.4096c8.4992 0 15.36-6.8608 15.36-15.36 0.0512-8.3968-6.8608-15.2576-15.3088-15.2576zM671.9488 731.136H355.584c-8.4992 0-15.36-6.8608-15.36-15.36s6.8608-15.36 15.36-15.36h316.3648c8.4992 0 15.36 6.8608 15.36 15.36s-6.8608 15.36-15.36 15.36z" fill="#333333" /><path d="M260.8128 484.096c-8.4992 0-15.36-6.8608-15.36-15.36v-25.4976c0-8.4992 6.8608-15.36 15.36-15.36s15.36 6.8608 15.36 15.36v25.4976c0 8.448-6.8608 15.36-15.36 15.36zM260.8128 391.936c-8.4992 0-15.36-6.8608-15.36-15.36V246.6304c0-28.2112 22.9376-51.1488 51.1488-51.1488h72.704c8.4992 0 15.36 6.8608 15.36 15.36s-6.8608 15.36-15.36 15.36h-72.704c-11.264 0-20.4288 9.1648-20.4288 20.4288v129.8944c0 8.4992-6.8608 15.4112-15.36 15.4112z" fill="#FFFFFF" /></svg>